HIERARCHY
ROOT Hips
{
	OFFSET -3.958830 18.904000 13.208200
	CHANNELS 6 Xposition Yposition Zposition Zrotation Yrotation Xrotation 
	JOINT LHipJoint
	{
		OFFSET 0.000000 0.000000 0.000000
		CHANNELS 3 Zrotation Yrotation Xrotation
		JOINT LeftUpLeg
		{
			OFFSET 1.800000 -1.400000 0.085000
			CHANNELS 3 Zrotation Yrotation Xrotation
			JOINT LeftLeg
			{
				OFFSET 2.215000 -6.000000 0.000000
				CHANNELS 3 Zrotation Yrotation Xrotation
				JOINT LeftFoot
				{
					OFFSET 2.500000 -6.900000 0.000000
					CHANNELS 3 Zrotation Yrotation Xrotation
					JOINT LeftToeBase
					{
						OFFSET 0.200000 -0.500000 1.950000
						CHANNELS 3 Zrotation Yrotation Xrotation
						End Site
						{
							OFFSET 0.000000 0.000000 0.000000
						}
					}
				}
			}
		}
	}
	JOINT RHipJoint
	{
		OFFSET 0.000000 0.000000 0.000000
		CHANNELS 3 Zrotation Yrotation Xrotation
		JOINT RightUpLeg
		{
			OFFSET -1.800000 -1.400000 0.085000
			CHANNELS 3 Zrotation Yrotation Xrotation
			JOINT RightLeg
			{
				OFFSET -2.215000 -6.000000 0.000000
				CHANNELS 3 Zrotation Yrotation Xrotation
				JOINT RightFoot
				{
					OFFSET -2.500000 -6.900000 0.000000
					CHANNELS 3 Zrotation Yrotation Xrotation
					JOINT RightToeBase
					{
						OFFSET -0.200000 -0.500000 1.950000
						CHANNELS 3 Zrotation Yrotation Xrotation
						End Site
						{
							OFFSET 0.000000 0.000000 0.000000
						}
					}
				}
			}
		}
	}
	JOINT LowerBack
	{
		OFFSET 0.000000 0.000000 0.000000
		CHANNELS 3 Zrotation Yrotation Xrotation
		JOINT Spine
		{
			OFFSET -0.087000 1.940000 -0.288900
			CHANNELS 3 Zrotation Yrotation Xrotation
			JOINT Spine1
			{
				OFFSET 0.000000 1.950000 0.060000
				CHANNELS 3 Zrotation Yrotation Xrotation
				JOINT Neck
				{
					OFFSET 0.000000 0.000000 0.000000
					CHANNELS 3 Zrotation Yrotation Xrotation
					JOINT Neck1
					{
						OFFSET 0.000000 1.600000 0.340000
						CHANNELS 3 Zrotation Yrotation Xrotation
						JOINT Head
						{
							OFFSET 0.000000 1.667000 -0.240000
							CHANNELS 3 Zrotation Yrotation Xrotation
							End Site
							{
								OFFSET 0.000000 0.000000 0.000000
							}
						}
					}
				}
				JOINT LeftShoulder
				{
					OFFSET 0.000000 0.000000 0.000000
					CHANNELS 3 Zrotation Yrotation Xrotation
					JOINT LeftArm
					{
						OFFSET 2.700000 1.550000 -0.730000
						CHANNELS 3 Zrotation Yrotation Xrotation
						JOINT LeftForeArm
						{
							OFFSET 5.450000 0.000000 0.000000
							CHANNELS 3 Zrotation Yrotation Xrotation
							JOINT LeftHand
							{
								OFFSET 3.450000 0.000000 0.000000
								CHANNELS 3 Zrotation Yrotation Xrotation
								JOINT LeftHandIndex1
								{
									OFFSET 0.750000 0.000000 0.000000
									CHANNELS 3 Zrotation Yrotation Xrotation
									End Site
									{
										OFFSET 0.000000 0.000000 0.000000
									}
								}
							}
						}
					}
				}
				JOINT RightShoulder
				{
					OFFSET 0.000000 0.000000 0.000000
					CHANNELS 3 Zrotation Yrotation Xrotation
					JOINT RightArm
					{
						OFFSET -2.700000 1.550000 -0.730000
						CHANNELS 3 Zrotation Yrotation Xrotation
						JOINT RightForeArm
						{
							OFFSET -5.450000 0.000000 0.000000
							CHANNELS 3 Zrotation Yrotation Xrotation
							JOINT RightHand
							{
								OFFSET -3.450000 0.000000 0.000000
								CHANNELS 3 Zrotation Yrotation Xrotation
								JOINT RightHandIndex1
								{
									OFFSET -0.750000 0.000000 0.000000
									CHANNELS 3 Zrotation Yrotation Xrotation
									End Site
									{
										OFFSET 0.000000 0.000000 0.000000
									}
								}
							}
						}
					}
				}
			}
		}
	}
}
MOTION
Frames: 6
Frame Time: 0.016667
-0.077550 16.413930 -3.401780 -7.641157 -28.615043 5.478153 -15.353940 13.740896 3.603654 21.358347 -2.037281 -28.149934 -1.844235 12.524456 42.727285 0.837272 8.069576 1.664441 -0.046910 -0.369740 0.075320 18.208512 -8.664647 3.960693 -9.506714 8.925763 -40.377409 2.897052 -10.431760 50.781681 -0.625255 -7.047876 2.106666 -0.461590 0.037610 -0.153460 -3.145305 -5.372378 -8.606383 16.074403 -5.971538 19.498485 -0.105209 -2.297266 -28.221573 1.988117 -10.199355 -11.383435 -28.477360 17.328243 34.300766 5.536650 8.581190 16.286630 -0.556122 21.894556 0.786928 -45.421369 11.948906 -5.881540 21.693902 -16.500777 -0.979239 -3.516188 2.800340 0.374520 -0.132870 -0.086710 0.050130 0.696416 -15.062006 4.213428 69.766335 -15.952709 -16.956719 -0.436327 37.713649 1.074866 2.606224 -1.087080 -0.092280 -0.148910 -0.157750 -0.083990 
-0.083240 16.388450 -3.397590 -8.253191 -29.116260 5.720938 -15.392692 13.684863 3.644702 22.223170 -1.716366 -28.404584 -1.880002 12.971007 43.440927 0.874322 8.279016 1.593371 -0.027050 -0.356440 0.101120 18.201441 -8.534210 4.012985 -8.687142 9.584939 -40.670859 2.149747 -10.118274 51.874100 -0.680494 -7.140296 2.074935 -0.458210 0.020070 -0.148280 -3.110541 -5.444588 -8.667320 16.566266 -6.369460 19.970855 0.234182 -2.096953 -28.764951 2.001730 -10.232290 -11.431213 -28.610644 17.952070 34.855936 5.132810 9.513030 15.675420 -0.416259 21.917572 0.952383 -45.276637 13.138287 -6.047964 20.998400 -14.550094 -0.560585 -3.510606 2.780742 0.400170 -0.151150 -0.062700 0.056730 0.431971 -14.788906 3.986680 69.265588 -14.489566 -16.081494 -1.825269 36.743287 0.795533 2.632933 -1.078598 -0.091920 -0.148280 -0.173760 -0.090670 
-0.103600 16.331800 -3.393310 -8.843593 -29.816497 5.963512 -15.457690 13.612457 3.679704 23.248774 -1.305308 -28.670620 -1.739336 13.538623 44.591345 0.921651 8.568838 1.489369 -0.010920 -0.340490 0.109740 18.184788 -8.332697 4.106539 -7.604801 10.501955 -41.282989 0.938436 -9.640889 53.722613 -0.754057 -7.342786 2.015591 -0.449840 0.008270 -0.146200 -3.034095 -5.579234 -8.755921 16.513000 -6.862414 20.408201 1.525057 -1.821838 -29.163411 1.740685 -10.362741 -11.448071 -28.945151 18.988267 34.992842 4.866580 10.717910 15.114890 0.102252 21.918198 1.417985 -46.049880 14.615854 -6.304096 20.641094 -12.080311 -0.104008 -3.519192 2.768807 0.419340 -0.162590 -0.049960 0.062710 0.338900 -14.472040 3.506309 67.978827 -12.170879 -14.733306 -3.720617 35.873653 0.447095 2.652989 -1.084578 -0.093330 -0.149970 -0.180620 -0.096770 
-0.122150 16.266600 -3.386020 -9.546022 -30.566080 6.012974 -15.537888 13.549452 3.740493 24.614396 -0.805078 -28.698103 -1.801181 14.369963 46.006735 1.022100 8.924800 1.356207 0.024240 -0.292350 0.140470 18.154478 -8.119451 4.172341 -6.510707 11.378008 -41.531626 -0.247055 -9.189928 55.771129 -0.856440 -7.580966 1.934741 -0.439290 -0.035460 -0.137110 -2.915985 -5.766503 -8.869274 16.211340 -7.583048 21.137544 3.295990 -1.530257 -29.345383 1.448752 -10.363025 -11.751445 -29.084570 20.232216 35.781152 4.562470 12.313200 14.074840 1.085251 21.392021 2.250961 -47.276477 16.509782 -6.837522 19.281042 -8.666764 0.464375 -3.513852 2.763842 0.433940 -0.193530 -0.008460 0.065000 -0.152569 -13.658163 3.272507 67.405866 -9.644262 -13.700207 -6.240153 36.447714 -0.041096 2.672520 -1.115169 -0.065930 -0.170190 -0.207970 -0.096340 
-0.145200 16.216360 -3.373670 -9.901470 -31.345783 5.693510 -15.601110 13.610536 3.747826 25.401558 -0.406905 -28.177813 -1.646660 14.852342 46.884847 1.086387 9.108004 1.274635 0.067780 -0.247130 0.198180 18.104644 -7.989093 4.233839 -5.477523 12.070448 -41.331150 -1.498243 -8.549383 57.473165 -0.954578 -7.739451 1.882573 -0.435270 -0.100430 -0.128990 -2.738702 -6.008787 -8.999143 15.148528 -8.077448 21.832851 5.094378 -1.095207 -29.680076 1.549729 -9.870859 -12.453459 -28.492090 21.364518 38.691995 3.883130 14.305830 13.574950 1.954292 20.162065 3.154293 -47.979487 18.432370 -7.263216 17.534546 -4.631419 1.051695 -3.500714 2.733638 0.473580 -0.234420 0.051470 0.062120 -1.141132 -12.430018 3.612506 68.136397 -8.166095 -13.504723 -9.770948 38.567618 -0.859522 2.659990 -1.140990 -0.040650 -0.190950 -0.241930 -0.112470 
-0.158270 16.183920 -3.363340 -9.912623 -31.549737 4.845151 -15.659433 13.781717 3.746226 25.687654 -0.271369 -27.588692 -1.190101 14.873277 47.471334 1.097225 9.145512 1.222469 0.111570 -0.204890 0.272360 18.027296 -7.956329 4.220621 -4.774659 12.242256 -40.501744 -2.461028 -8.012499 58.484217 -1.029787 -7.802017 1.846418 -0.430690 -0.191680 -0.120380 -2.470041 -6.326657 -9.130822 13.297600 -8.203312 22.700483 7.269500 -0.319211 -29.679351 1.937948 -9.065970 -13.479218 -27.733764 21.886839 43.338819 2.309110 16.046940 12.863540 2.491375 17.920564 4.139872 -49.282582 19.502383 -7.447417 15.973429 -0.303917 1.593875 -3.488431 2.693480 0.528300 -0.284280 0.123560 0.038500 -2.196340 -10.343532 4.607622 69.236890 -7.880293 -14.354444 -14.692512 42.273375 -2.387576 2.612894 -1.162737 -0.015070 -0.215220 -0.266720 -0.143790 
